<mxfile host="app.diagrams.net" modified="2024-04-14T10:43:55.041Z" agent="Mozilla/5.0 (Windows NT 10.0; Win64; x64) AppleWebKit/537.36 (KHTML, like Gecko) Chrome/123.0.0.0 Safari/537.36" etag="_PQbvfv_6MvU8hG5LP2N" version="24.2.5" type="device">
  <diagram id="2RBffAXiTYxmFFUJ6-6b" name="Page-1">
    <mxGraphModel dx="1071" dy="548" grid="1" gridSize="10" guides="1" tooltips="1" connect="1" arrows="1" fold="1" page="1" pageScale="1" pageWidth="850" pageHeight="1100" math="0" shadow="0">
      <root>
        <mxCell id="0" />
        <mxCell id="1" parent="0" />
        <mxCell id="zhC7geiMekVrc6CajIfJ-1" value="Administrator" style="swimlane;childLayout=stackLayout;horizontal=1;startSize=30;horizontalStack=0;rounded=1;fontSize=14;fontStyle=0;strokeWidth=2;resizeParent=0;resizeLast=1;shadow=0;dashed=0;align=center;" parent="1" vertex="1">
          <mxGeometry x="370" y="100" width="160" height="120" as="geometry" />
        </mxCell>
        <mxCell id="zhC7geiMekVrc6CajIfJ-2" value="- administratorID: Long&#xa;- ime: String&#xa;- prezime: String&#xa;- username: String&#xa;- password: String" style="align=left;strokeColor=none;fillColor=none;spacingLeft=4;fontSize=12;verticalAlign=top;resizable=0;rotatable=0;part=1;" parent="zhC7geiMekVrc6CajIfJ-1" vertex="1">
          <mxGeometry y="30" width="160" height="90" as="geometry" />
        </mxCell>
        <mxCell id="zhC7geiMekVrc6CajIfJ-3" value="Termin" style="swimlane;childLayout=stackLayout;horizontal=1;startSize=30;horizontalStack=0;rounded=1;fontSize=14;fontStyle=0;strokeWidth=2;resizeParent=0;resizeLast=1;shadow=0;dashed=0;align=center;" parent="1" vertex="1">
          <mxGeometry x="370" y="320" width="160" height="120" as="geometry" />
        </mxCell>
        <mxCell id="zhC7geiMekVrc6CajIfJ-4" value="- terminID: Long&#xa;- datumVreme: DateTime&#xa;- cenaKarte: double&#xa;- projekcija: String" style="align=left;strokeColor=none;fillColor=none;spacingLeft=4;fontSize=12;verticalAlign=top;resizable=0;rotatable=0;part=1;" parent="zhC7geiMekVrc6CajIfJ-3" vertex="1">
          <mxGeometry y="30" width="160" height="90" as="geometry" />
        </mxCell>
        <mxCell id="zhC7geiMekVrc6CajIfJ-5" value="Karta" style="swimlane;childLayout=stackLayout;horizontal=1;startSize=30;horizontalStack=0;rounded=1;fontSize=14;fontStyle=0;strokeWidth=2;resizeParent=0;resizeLast=1;shadow=0;dashed=0;align=center;" parent="1" vertex="1">
          <mxGeometry x="690" y="320" width="160" height="120" as="geometry" />
        </mxCell>
        <mxCell id="zhC7geiMekVrc6CajIfJ-6" value="- kartaID: Long&#xa;- sediste: String" style="align=left;strokeColor=none;fillColor=none;spacingLeft=4;fontSize=12;verticalAlign=top;resizable=0;rotatable=0;part=1;" parent="zhC7geiMekVrc6CajIfJ-5" vertex="1">
          <mxGeometry y="30" width="160" height="90" as="geometry" />
        </mxCell>
        <mxCell id="zhC7geiMekVrc6CajIfJ-7" value="Gledalac" style="swimlane;childLayout=stackLayout;horizontal=1;startSize=30;horizontalStack=0;rounded=1;fontSize=14;fontStyle=0;strokeWidth=2;resizeParent=0;resizeLast=1;shadow=0;dashed=0;align=center;" parent="1" vertex="1">
          <mxGeometry x="690" y="530" width="160" height="120" as="geometry" />
        </mxCell>
        <mxCell id="zhC7geiMekVrc6CajIfJ-8" value="- gledalacID: Long&#xa;- ime: String&#xa;- prezime: String&#xa;- email: String&#xa;- telefon: String" style="align=left;strokeColor=none;fillColor=none;spacingLeft=4;fontSize=12;verticalAlign=top;resizable=0;rotatable=0;part=1;" parent="zhC7geiMekVrc6CajIfJ-7" vertex="1">
          <mxGeometry y="30" width="160" height="90" as="geometry" />
        </mxCell>
        <mxCell id="zhC7geiMekVrc6CajIfJ-9" value="Film" style="swimlane;childLayout=stackLayout;horizontal=1;startSize=30;horizontalStack=0;rounded=1;fontSize=14;fontStyle=0;strokeWidth=2;resizeParent=0;resizeLast=1;shadow=0;dashed=0;align=center;" parent="1" vertex="1">
          <mxGeometry x="50" y="320" width="160" height="120" as="geometry" />
        </mxCell>
        <mxCell id="zhC7geiMekVrc6CajIfJ-10" value="- filmID: Long&#xa;- naziv: String&#xa;- zanr: String&#xa;- opis: String&#xa;- reziser: String" style="align=left;strokeColor=none;fillColor=none;spacingLeft=4;fontSize=12;verticalAlign=top;resizable=0;rotatable=0;part=1;" parent="zhC7geiMekVrc6CajIfJ-9" vertex="1">
          <mxGeometry y="30" width="160" height="90" as="geometry" />
        </mxCell>
        <mxCell id="zhC7geiMekVrc6CajIfJ-13" value="Sala" style="swimlane;childLayout=stackLayout;horizontal=1;startSize=30;horizontalStack=0;rounded=1;fontSize=14;fontStyle=0;strokeWidth=2;resizeParent=0;resizeLast=1;shadow=0;dashed=0;align=center;" parent="1" vertex="1">
          <mxGeometry x="50" y="100" width="160" height="120" as="geometry" />
        </mxCell>
        <mxCell id="zhC7geiMekVrc6CajIfJ-14" value="- salaID: Long&#xa;- naziv: String" style="align=left;strokeColor=none;fillColor=none;spacingLeft=4;fontSize=12;verticalAlign=top;resizable=0;rotatable=0;part=1;" parent="zhC7geiMekVrc6CajIfJ-13" vertex="1">
          <mxGeometry y="30" width="160" height="90" as="geometry" />
        </mxCell>
        <mxCell id="zhC7geiMekVrc6CajIfJ-15" value="Uloga" style="swimlane;childLayout=stackLayout;horizontal=1;startSize=30;horizontalStack=0;rounded=1;fontSize=14;fontStyle=0;strokeWidth=2;resizeParent=0;resizeLast=1;shadow=0;dashed=0;align=center;" parent="1" vertex="1">
          <mxGeometry x="50" y="530" width="160" height="120" as="geometry" />
        </mxCell>
        <mxCell id="zhC7geiMekVrc6CajIfJ-16" value="- rb: int&#xa;- naziv: String&#xa;- opis: String" style="align=left;strokeColor=none;fillColor=none;spacingLeft=4;fontSize=12;verticalAlign=top;resizable=0;rotatable=0;part=1;" parent="zhC7geiMekVrc6CajIfJ-15" vertex="1">
          <mxGeometry y="30" width="160" height="90" as="geometry" />
        </mxCell>
        <mxCell id="zhC7geiMekVrc6CajIfJ-20" value="" style="endArrow=none;html=1;rounded=0;entryX=1;entryY=1;entryDx=0;entryDy=0;exitX=0;exitY=0;exitDx=0;exitDy=0;" parent="1" source="zhC7geiMekVrc6CajIfJ-7" target="zhC7geiMekVrc6CajIfJ-4" edge="1">
          <mxGeometry width="50" height="50" relative="1" as="geometry">
            <mxPoint x="220" y="382.5" as="sourcePoint" />
            <mxPoint x="380" y="382.5" as="targetPoint" />
          </mxGeometry>
        </mxCell>
        <mxCell id="zhC7geiMekVrc6CajIfJ-22" value="" style="endArrow=none;dashed=1;html=1;rounded=0;entryX=0;entryY=1;entryDx=0;entryDy=0;" parent="1" target="zhC7geiMekVrc6CajIfJ-6" edge="1">
          <mxGeometry width="50" height="50" relative="1" as="geometry">
            <mxPoint x="610" y="480" as="sourcePoint" />
            <mxPoint x="590" y="410" as="targetPoint" />
          </mxGeometry>
        </mxCell>
        <mxCell id="zhC7geiMekVrc6CajIfJ-23" value="" style="endArrow=diamondThin;endFill=1;endSize=24;html=1;rounded=0;exitX=0.5;exitY=0;exitDx=0;exitDy=0;entryX=0.5;entryY=1;entryDx=0;entryDy=0;" parent="1" source="zhC7geiMekVrc6CajIfJ-15" target="zhC7geiMekVrc6CajIfJ-10" edge="1">
          <mxGeometry width="160" relative="1" as="geometry">
            <mxPoint x="490" y="450" as="sourcePoint" />
            <mxPoint x="650" y="450" as="targetPoint" />
          </mxGeometry>
        </mxCell>
        <mxCell id="zhC7geiMekVrc6CajIfJ-24" value="1" style="text;html=1;align=center;verticalAlign=middle;resizable=0;points=[];autosize=1;strokeColor=none;fillColor=none;fontSize=15;" parent="1" vertex="1">
          <mxGeometry x="450" y="220" width="30" height="30" as="geometry" />
        </mxCell>
        <mxCell id="zhC7geiMekVrc6CajIfJ-25" value="1" style="text;html=1;align=center;verticalAlign=middle;resizable=0;points=[];autosize=1;strokeColor=none;fillColor=none;fontSize=15;" parent="1" vertex="1">
          <mxGeometry x="220" y="190" width="30" height="30" as="geometry" />
        </mxCell>
        <mxCell id="zhC7geiMekVrc6CajIfJ-26" value="1" style="text;html=1;align=center;verticalAlign=middle;resizable=0;points=[];autosize=1;strokeColor=none;fillColor=none;fontSize=15;" parent="1" vertex="1">
          <mxGeometry x="210" y="340" width="30" height="30" as="geometry" />
        </mxCell>
        <mxCell id="zhC7geiMekVrc6CajIfJ-27" value="*" style="text;html=1;align=center;verticalAlign=middle;resizable=0;points=[];autosize=1;strokeColor=none;fillColor=none;fontSize=18;" parent="1" vertex="1">
          <mxGeometry x="350" y="280" width="30" height="40" as="geometry" />
        </mxCell>
        <mxCell id="zhC7geiMekVrc6CajIfJ-28" value="*" style="text;html=1;align=center;verticalAlign=middle;resizable=0;points=[];autosize=1;strokeColor=none;fillColor=none;fontSize=18;" parent="1" vertex="1">
          <mxGeometry x="450" y="280" width="30" height="40" as="geometry" />
        </mxCell>
        <mxCell id="zhC7geiMekVrc6CajIfJ-29" value="*" style="text;html=1;align=center;verticalAlign=middle;resizable=0;points=[];autosize=1;strokeColor=none;fillColor=none;fontSize=18;" parent="1" vertex="1">
          <mxGeometry x="330" y="340" width="30" height="40" as="geometry" />
        </mxCell>
        <mxCell id="zhC7geiMekVrc6CajIfJ-30" value="*" style="text;html=1;align=center;verticalAlign=middle;resizable=0;points=[];autosize=1;strokeColor=none;fillColor=none;fontSize=18;" parent="1" vertex="1">
          <mxGeometry x="130" y="490" width="30" height="40" as="geometry" />
        </mxCell>
        <mxCell id="zhC7geiMekVrc6CajIfJ-31" value="*" style="text;html=1;align=center;verticalAlign=middle;resizable=0;points=[];autosize=1;strokeColor=none;fillColor=none;fontSize=18;" parent="1" vertex="1">
          <mxGeometry x="680" y="500" width="30" height="40" as="geometry" />
        </mxCell>
        <mxCell id="zhC7geiMekVrc6CajIfJ-32" value="*" style="text;html=1;align=center;verticalAlign=middle;resizable=0;points=[];autosize=1;strokeColor=none;fillColor=none;fontSize=18;" parent="1" vertex="1">
          <mxGeometry x="540" y="410" width="30" height="40" as="geometry" />
        </mxCell>
        <mxCell id="a9TjFDx1yc-Xo8rgNOm7-1" value="" style="endArrow=diamondThin;endFill=0;endSize=24;html=1;rounded=0;exitX=1;exitY=0.25;exitDx=0;exitDy=0;entryX=0;entryY=0.25;entryDx=0;entryDy=0;" parent="1" source="zhC7geiMekVrc6CajIfJ-10" target="zhC7geiMekVrc6CajIfJ-4" edge="1">
          <mxGeometry width="160" relative="1" as="geometry">
            <mxPoint x="370" y="400" as="sourcePoint" />
            <mxPoint x="530" y="400" as="targetPoint" />
          </mxGeometry>
        </mxCell>
        <mxCell id="a9TjFDx1yc-Xo8rgNOm7-2" value="" style="endArrow=diamondThin;endFill=0;endSize=24;html=1;rounded=0;exitX=0.5;exitY=1;exitDx=0;exitDy=0;entryX=0.5;entryY=0;entryDx=0;entryDy=0;" parent="1" source="zhC7geiMekVrc6CajIfJ-2" target="zhC7geiMekVrc6CajIfJ-3" edge="1">
          <mxGeometry width="160" relative="1" as="geometry">
            <mxPoint x="220" y="383" as="sourcePoint" />
            <mxPoint x="380" y="383" as="targetPoint" />
          </mxGeometry>
        </mxCell>
        <mxCell id="a9TjFDx1yc-Xo8rgNOm7-3" value="" style="endArrow=diamondThin;endFill=0;endSize=24;html=1;rounded=0;exitX=1;exitY=1;exitDx=0;exitDy=0;entryX=0;entryY=0;entryDx=0;entryDy=0;" parent="1" source="zhC7geiMekVrc6CajIfJ-14" target="zhC7geiMekVrc6CajIfJ-3" edge="1">
          <mxGeometry width="160" relative="1" as="geometry">
            <mxPoint x="630" y="250" as="sourcePoint" />
            <mxPoint x="640" y="300" as="targetPoint" />
          </mxGeometry>
        </mxCell>
        <mxCell id="2rslpLZ3dNbSy99_xP7U-1" value="Glumac" style="swimlane;childLayout=stackLayout;horizontal=1;startSize=30;horizontalStack=0;rounded=1;fontSize=14;fontStyle=0;strokeWidth=2;resizeParent=0;resizeLast=1;shadow=0;dashed=0;align=center;" vertex="1" parent="1">
          <mxGeometry x="370" y="530" width="160" height="120" as="geometry" />
        </mxCell>
        <mxCell id="2rslpLZ3dNbSy99_xP7U-2" value="- glumacID: Long&#xa;- ime: String&#xa;- prezime: String&#xa;- datumRodjenja: Date" style="align=left;strokeColor=none;fillColor=none;spacingLeft=4;fontSize=12;verticalAlign=top;resizable=0;rotatable=0;part=1;" vertex="1" parent="2rslpLZ3dNbSy99_xP7U-1">
          <mxGeometry y="30" width="160" height="90" as="geometry" />
        </mxCell>
        <mxCell id="2rslpLZ3dNbSy99_xP7U-3" value="" style="endArrow=diamondThin;endFill=0;endSize=24;html=1;rounded=0;exitX=0;exitY=0.25;exitDx=0;exitDy=0;entryX=1;entryY=0.25;entryDx=0;entryDy=0;" edge="1" parent="1" source="2rslpLZ3dNbSy99_xP7U-2" target="zhC7geiMekVrc6CajIfJ-16">
          <mxGeometry width="160" relative="1" as="geometry">
            <mxPoint x="220" y="383" as="sourcePoint" />
            <mxPoint x="380" y="383" as="targetPoint" />
          </mxGeometry>
        </mxCell>
        <mxCell id="2rslpLZ3dNbSy99_xP7U-4" value="*" style="text;html=1;align=center;verticalAlign=middle;resizable=0;points=[];autosize=1;strokeColor=none;fillColor=none;fontSize=18;" vertex="1" parent="1">
          <mxGeometry x="210" y="540" width="30" height="40" as="geometry" />
        </mxCell>
        <mxCell id="2rslpLZ3dNbSy99_xP7U-5" value="1" style="text;html=1;align=center;verticalAlign=middle;resizable=0;points=[];autosize=1;strokeColor=none;fillColor=none;fontSize=15;" vertex="1" parent="1">
          <mxGeometry x="340" y="545" width="30" height="30" as="geometry" />
        </mxCell>
      </root>
    </mxGraphModel>
  </diagram>
</mxfile>
